<?xml version="1.0" encoding="UTF-8" standalone="no"?>
<!DOCTYPE svg PUBLIC "-//W3C//DTD SVG 1.1//EN"
 "http://www.w3.org/Graphics/SVG/1.1/DTD/svg11.dtd">
<!-- Generated by graphviz version 2.38.0 (20140413.2041)
 -->
<!-- Title: main.models.Station Pages: 1 -->
<svg width="114pt" height="215pt"
 viewBox="0.00 0.00 114.00 215.00" xmlns="http://www.w3.org/2000/svg" xmlns:xlink="http://www.w3.org/1999/xlink">
<g id="graph0" class="graph" transform="scale(1 1) rotate(0) translate(4 211)">
<title>main.models.Station</title>
<polygon fill="white" stroke="none" points="-4,4 -4,-211 110,-211 110,4 -4,4"/>
<!-- Node1 -->
<g id="node1" class="node"><title>Node1</title>
<polygon fill="#bfbfbf" stroke="black" points="-7.10543e-15,-0.5 -7.10543e-15,-112.5 106,-112.5 106,-0.5 -7.10543e-15,-0.5"/>
<text text-anchor="middle" x="53" y="-100.5" font-family="Helvetica,sans-Serif" font-size="10.00">main.models.Station</text>
<polyline fill="none" stroke="black" points="-7.10543e-15,-93.5 106,-93.5 "/>
<text text-anchor="start" x="8" y="-81.5" font-family="Helvetica,sans-Serif" font-size="10.00">+ name</text>
<text text-anchor="start" x="8" y="-70.5" font-family="Helvetica,sans-Serif" font-size="10.00">+ lat</text>
<text text-anchor="start" x="8" y="-59.5" font-family="Helvetica,sans-Serif" font-size="10.00">+ lng</text>
<polyline fill="none" stroke="black" points="-7.10543e-15,-52.5 106,-52.5 "/>
<text text-anchor="start" x="8" y="-40.5" font-family="Helvetica,sans-Serif" font-size="10.00">+ __str__()</text>
<text text-anchor="start" x="8" y="-29.5" font-family="Helvetica,sans-Serif" font-size="10.00">+ coords()</text>
<text text-anchor="start" x="8" y="-18.5" font-family="Helvetica,sans-Serif" font-size="10.00">+ set_coords()</text>
<text text-anchor="start" x="8" y="-7.5" font-family="Helvetica,sans-Serif" font-size="10.00">+ distance_to()</text>
</g>
<!-- Node2 -->
<g id="node2" class="node"><title>Node2</title>
<polygon fill="white" stroke="#bfbfbf" points="31.5,-149.5 31.5,-206.5 74.5,-206.5 74.5,-149.5 31.5,-149.5"/>
<text text-anchor="middle" x="53" y="-194.5" font-family="Helvetica,sans-Serif" font-size="10.00">Model</text>
<polyline fill="none" stroke="#bfbfbf" points="31.5,-187.5 74.5,-187.5 "/>
<text text-anchor="middle" x="53" y="-175.5" font-family="Helvetica,sans-Serif" font-size="10.00"> </text>
<polyline fill="none" stroke="#bfbfbf" points="31.5,-168.5 74.5,-168.5 "/>
<text text-anchor="middle" x="53" y="-156.5" font-family="Helvetica,sans-Serif" font-size="10.00"> </text>
</g>
<!-- Node2&#45;&gt;Node1 -->
<g id="edge1" class="edge"><title>Node2&#45;&gt;Node1</title>
<path fill="none" stroke="midnightblue" d="M53,-139.108C53,-130.748 53,-121.725 53,-112.834"/>
<polygon fill="none" stroke="midnightblue" points="49.5001,-139.284 53,-149.284 56.5001,-139.284 49.5001,-139.284"/>
</g>
</g>
</svg>
