<?xml version="1.0" encoding="UTF-8" standalone="no"?>
<!DOCTYPE svg PUBLIC "-//W3C//DTD SVG 1.1//EN"
 "http://www.w3.org/Graphics/SVG/1.1/DTD/svg11.dtd">
<!-- Generated by graphviz version 2.38.0 (20140413.2041)
 -->
<!-- Title: main.models.Travel Pages: 1 -->
<svg width="110pt" height="248pt"
 viewBox="0.00 0.00 110.00 248.00" xmlns="http://www.w3.org/2000/svg" xmlns:xlink="http://www.w3.org/1999/xlink">
<g id="graph0" class="graph" transform="scale(1 1) rotate(0) translate(4 244)">
<title>main.models.Travel</title>
<polygon fill="white" stroke="none" points="-4,4 -4,-244 106,-244 106,4 -4,4"/>
<!-- Node1 -->
<g id="node1" class="node"><title>Node1</title>
<polygon fill="#bfbfbf" stroke="black" points="-7.10543e-15,-0.5 -7.10543e-15,-145.5 102,-145.5 102,-0.5 -7.10543e-15,-0.5"/>
<text text-anchor="middle" x="51" y="-133.5" font-family="Helvetica,sans-Serif" font-size="10.00">main.models.Travel</text>
<polyline fill="none" stroke="black" points="-7.10543e-15,-126.5 102,-126.5 "/>
<text text-anchor="start" x="8" y="-114.5" font-family="Helvetica,sans-Serif" font-size="10.00">+ date</text>
<text text-anchor="start" x="8" y="-103.5" font-family="Helvetica,sans-Serif" font-size="10.00">+ passengers</text>
<text text-anchor="start" x="8" y="-92.5" font-family="Helvetica,sans-Serif" font-size="10.00">+ user</text>
<polyline fill="none" stroke="black" points="-7.10543e-15,-85.5 102,-85.5 "/>
<text text-anchor="start" x="8" y="-73.5" font-family="Helvetica,sans-Serif" font-size="10.00">+ start_station()</text>
<text text-anchor="start" x="8" y="-62.5" font-family="Helvetica,sans-Serif" font-size="10.00">+ end_station()</text>
<text text-anchor="start" x="8" y="-51.5" font-family="Helvetica,sans-Serif" font-size="10.00">+ start_time()</text>
<text text-anchor="start" x="8" y="-40.5" font-family="Helvetica,sans-Serif" font-size="10.00">+ end_time()</text>
<text text-anchor="start" x="8" y="-29.5" font-family="Helvetica,sans-Serif" font-size="10.00">+ total_price()</text>
<text text-anchor="start" x="8" y="-18.5" font-family="Helvetica,sans-Serif" font-size="10.00">+ total_distance()</text>
<text text-anchor="start" x="8" y="-7.5" font-family="Helvetica,sans-Serif" font-size="10.00">+ __str__()</text>
</g>
<!-- Node2 -->
<g id="node2" class="node"><title>Node2</title>
<polygon fill="white" stroke="#bfbfbf" points="29.5,-182.5 29.5,-239.5 72.5,-239.5 72.5,-182.5 29.5,-182.5"/>
<text text-anchor="middle" x="51" y="-227.5" font-family="Helvetica,sans-Serif" font-size="10.00">Model</text>
<polyline fill="none" stroke="#bfbfbf" points="29.5,-220.5 72.5,-220.5 "/>
<text text-anchor="middle" x="51" y="-208.5" font-family="Helvetica,sans-Serif" font-size="10.00"> </text>
<polyline fill="none" stroke="#bfbfbf" points="29.5,-201.5 72.5,-201.5 "/>
<text text-anchor="middle" x="51" y="-189.5" font-family="Helvetica,sans-Serif" font-size="10.00"> </text>
</g>
<!-- Node2&#45;&gt;Node1 -->
<g id="edge1" class="edge"><title>Node2&#45;&gt;Node1</title>
<path fill="none" stroke="midnightblue" d="M51,-172.356C51,-163.999 51,-154.872 51,-145.656"/>
<polygon fill="none" stroke="midnightblue" points="47.5001,-172.478 51,-182.478 54.5001,-172.478 47.5001,-172.478"/>
</g>
</g>
</svg>
