<?xml version="1.0" encoding="UTF-8" standalone="no"?>
<!DOCTYPE svg PUBLIC "-//W3C//DTD SVG 1.1//EN"
 "http://www.w3.org/Graphics/SVG/1.1/DTD/svg11.dtd">
<!-- Generated by graphviz version 2.38.0 (20140413.2041)
 -->
<!-- Title: main.models.Train Pages: 1 -->
<svg width="105pt" height="215pt"
 viewBox="0.00 0.00 105.00 215.00" xmlns="http://www.w3.org/2000/svg" xmlns:xlink="http://www.w3.org/1999/xlink">
<g id="graph0" class="graph" transform="scale(1 1) rotate(0) translate(4 211)">
<title>main.models.Train</title>
<polygon fill="white" stroke="none" points="-4,4 -4,-211 101,-211 101,4 -4,4"/>
<!-- Node1 -->
<g id="node1" class="node"><title>Node1</title>
<polygon fill="#bfbfbf" stroke="black" points="-7.10543e-15,-0.5 -7.10543e-15,-112.5 97,-112.5 97,-0.5 -7.10543e-15,-0.5"/>
<text text-anchor="middle" x="48.5" y="-100.5" font-family="Helvetica,sans-Serif" font-size="10.00">main.models.Train</text>
<polyline fill="none" stroke="black" points="-7.10543e-15,-93.5 97,-93.5 "/>
<text text-anchor="start" x="8" y="-81.5" font-family="Helvetica,sans-Serif" font-size="10.00">+ number</text>
<text text-anchor="start" x="8" y="-70.5" font-family="Helvetica,sans-Serif" font-size="10.00">+ period</text>
<text text-anchor="start" x="8" y="-59.5" font-family="Helvetica,sans-Serif" font-size="10.00">+ traintype</text>
<text text-anchor="start" x="8" y="-48.5" font-family="Helvetica,sans-Serif" font-size="10.00">+ capacity</text>
<polyline fill="none" stroke="black" points="-7.10543e-15,-41.5 97,-41.5 "/>
<text text-anchor="start" x="8" y="-29.5" font-family="Helvetica,sans-Serif" font-size="10.00">+ runs()</text>
<text text-anchor="start" x="8" y="-18.5" font-family="Helvetica,sans-Serif" font-size="10.00">+ can_hold()</text>
<text text-anchor="start" x="8" y="-7.5" font-family="Helvetica,sans-Serif" font-size="10.00">+ __str__()</text>
</g>
<!-- Node2 -->
<g id="node2" class="node"><title>Node2</title>
<polygon fill="white" stroke="#bfbfbf" points="27,-149.5 27,-206.5 70,-206.5 70,-149.5 27,-149.5"/>
<text text-anchor="middle" x="48.5" y="-194.5" font-family="Helvetica,sans-Serif" font-size="10.00">Model</text>
<polyline fill="none" stroke="#bfbfbf" points="27,-187.5 70,-187.5 "/>
<text text-anchor="middle" x="48.5" y="-175.5" font-family="Helvetica,sans-Serif" font-size="10.00"> </text>
<polyline fill="none" stroke="#bfbfbf" points="27,-168.5 70,-168.5 "/>
<text text-anchor="middle" x="48.5" y="-156.5" font-family="Helvetica,sans-Serif" font-size="10.00"> </text>
</g>
<!-- Node2&#45;&gt;Node1 -->
<g id="edge1" class="edge"><title>Node2&#45;&gt;Node1</title>
<path fill="none" stroke="midnightblue" d="M48.5,-139.108C48.5,-130.748 48.5,-121.725 48.5,-112.834"/>
<polygon fill="none" stroke="midnightblue" points="45.0001,-139.284 48.5,-149.284 52.0001,-139.284 45.0001,-139.284"/>
</g>
</g>
</svg>
