<?xml version="1.0" encoding="UTF-8" standalone="no"?>
<!DOCTYPE svg PUBLIC "-//W3C//DTD SVG 1.1//EN"
 "http://www.w3.org/Graphics/SVG/1.1/DTD/svg11.dtd">
<!-- Generated by graphviz version 2.38.0 (20140413.2041)
 -->
<!-- Title: main.models.Ticket Pages: 1 -->
<svg width="110pt" height="215pt"
 viewBox="0.00 0.00 110.00 215.00" xmlns="http://www.w3.org/2000/svg" xmlns:xlink="http://www.w3.org/1999/xlink">
<g id="graph0" class="graph" transform="scale(1 1) rotate(0) translate(4 211)">
<title>main.models.Ticket</title>
<polygon fill="white" stroke="none" points="-4,4 -4,-211 106,-211 106,4 -4,4"/>
<!-- Node1 -->
<g id="node1" class="node"><title>Node1</title>
<polygon fill="#bfbfbf" stroke="black" points="-7.10543e-15,-0.5 -7.10543e-15,-112.5 102,-112.5 102,-0.5 -7.10543e-15,-0.5"/>
<text text-anchor="middle" x="51" y="-100.5" font-family="Helvetica,sans-Serif" font-size="10.00">main.models.Ticket</text>
<polyline fill="none" stroke="black" points="-7.10543e-15,-93.5 102,-93.5 "/>
<text text-anchor="start" x="8" y="-81.5" font-family="Helvetica,sans-Serif" font-size="10.00">+ sequence</text>
<text text-anchor="start" x="8" y="-70.5" font-family="Helvetica,sans-Serif" font-size="10.00">+ start_halt</text>
<text text-anchor="start" x="8" y="-59.5" font-family="Helvetica,sans-Serif" font-size="10.00">+ end_halt</text>
<text text-anchor="start" x="8" y="-48.5" font-family="Helvetica,sans-Serif" font-size="10.00">+ travel</text>
<polyline fill="none" stroke="black" points="-7.10543e-15,-41.5 102,-41.5 "/>
<text text-anchor="start" x="8" y="-29.5" font-family="Helvetica,sans-Serif" font-size="10.00">+ distance()</text>
<text text-anchor="start" x="8" y="-18.5" font-family="Helvetica,sans-Serif" font-size="10.00">+ price()</text>
<text text-anchor="start" x="8" y="-7.5" font-family="Helvetica,sans-Serif" font-size="10.00">+ __str__()</text>
</g>
<!-- Node2 -->
<g id="node2" class="node"><title>Node2</title>
<polygon fill="white" stroke="#bfbfbf" points="11,-149.5 11,-206.5 91,-206.5 91,-149.5 11,-149.5"/>
<text text-anchor="middle" x="51" y="-194.5" font-family="Helvetica,sans-Serif" font-size="10.00">models::Model</text>
<polyline fill="none" stroke="#bfbfbf" points="11,-187.5 91,-187.5 "/>
<text text-anchor="middle" x="51" y="-175.5" font-family="Helvetica,sans-Serif" font-size="10.00"> </text>
<polyline fill="none" stroke="#bfbfbf" points="11,-168.5 91,-168.5 "/>
<text text-anchor="middle" x="51" y="-156.5" font-family="Helvetica,sans-Serif" font-size="10.00"> </text>
</g>
<!-- Node2&#45;&gt;Node1 -->
<g id="edge1" class="edge"><title>Node2&#45;&gt;Node1</title>
<path fill="none" stroke="midnightblue" d="M51,-139.108C51,-130.748 51,-121.725 51,-112.834"/>
<polygon fill="none" stroke="midnightblue" points="47.5001,-139.284 51,-149.284 54.5001,-139.284 47.5001,-139.284"/>
</g>
</g>
</svg>
