<?xml version="1.0" encoding="UTF-8" standalone="no"?>
<!DOCTYPE svg PUBLIC "-//W3C//DTD SVG 1.1//EN"
 "http://www.w3.org/Graphics/SVG/1.1/DTD/svg11.dtd">
<!-- Generated by graphviz version 2.38.0 (20140413.2041)
 -->
<!-- Title: Graphe hiérarchique des classes Pages: 1 -->
<svg width="233pt" height="332pt"
 viewBox="0.00 0.00 233.00 332.00" xmlns="http://www.w3.org/2000/svg" xmlns:xlink="http://www.w3.org/1999/xlink">
<g id="graph0" class="graph" transform="scale(1 1) rotate(0) translate(4 328)">
<title>Graphe hiérarchique des classes</title>
<polygon fill="white" stroke="none" points="-4,4 -4,-328 229,-328 229,4 -4,4"/>
<!-- Node1 -->
<g id="node1" class="node"><title>Node1</title>
<polygon fill="white" stroke="#bfbfbf" points="0,-152.5 0,-171.5 43,-171.5 43,-152.5 0,-152.5"/>
<text text-anchor="middle" x="21.5" y="-159.5" font-family="Helvetica,sans-Serif" font-size="10.00">Model</text>
</g>
<!-- Node2 -->
<g id="node2" class="node"><title>Node2</title>
<g id="a_node2"><a xlink:href="classmain_1_1models_1_1Halt.html" target="_top" xlink:title="main.models.Halt">
<polygon fill="white" stroke="black" points="105.5,-304.5 105.5,-323.5 198.5,-323.5 198.5,-304.5 105.5,-304.5"/>
<text text-anchor="middle" x="152" y="-311.5" font-family="Helvetica,sans-Serif" font-size="10.00">main.models.Halt</text>
</a>
</g>
</g>
<!-- Node1&#45;&gt;Node2 -->
<g id="edge1" class="edge"><title>Node1&#45;&gt;Node2</title>
<path fill="none" stroke="midnightblue" d="M25.369,-181.916C30.644,-211.114 44.6738,-265.283 79,-295 86.4283,-301.431 95.7918,-305.718 105.287,-308.567"/>
<polygon fill="midnightblue" stroke="midnightblue" points="28.7706,-181.029 23.7041,-171.725 21.8622,-182.158 28.7706,-181.029"/>
</g>
<!-- Node3 -->
<g id="node3" class="node"><title>Node3</title>
<g id="a_node3"><a xlink:href="classmain_1_1models_1_1Passenger.html" target="_top" xlink:title="main.models.Passenger">
<polygon fill="white" stroke="black" points="91,-266.5 91,-285.5 213,-285.5 213,-266.5 91,-266.5"/>
<text text-anchor="middle" x="152" y="-273.5" font-family="Helvetica,sans-Serif" font-size="10.00">main.models.Passenger</text>
</a>
</g>
</g>
<!-- Node1&#45;&gt;Node3 -->
<g id="edge2" class="edge"><title>Node1&#45;&gt;Node3</title>
<path fill="none" stroke="midnightblue" d="M28.8759,-181.242C37.0533,-202.917 53.3249,-237.638 79,-257 84.1609,-260.892 90.0525,-263.988 96.1923,-266.452"/>
<polygon fill="midnightblue" stroke="midnightblue" points="32.1566,-180.021 25.5061,-171.773 25.5619,-182.368 32.1566,-180.021"/>
</g>
<!-- Node4 -->
<g id="node4" class="node"><title>Node4</title>
<g id="a_node4"><a xlink:href="classmain_1_1models_1_1Period.html" target="_top" xlink:title="main.models.Period">
<polygon fill="white" stroke="black" points="100.5,-228.5 100.5,-247.5 203.5,-247.5 203.5,-228.5 100.5,-228.5"/>
<text text-anchor="middle" x="152" y="-235.5" font-family="Helvetica,sans-Serif" font-size="10.00">main.models.Period</text>
</a>
</g>
</g>
<!-- Node1&#45;&gt;Node4 -->
<g id="edge3" class="edge"><title>Node1&#45;&gt;Node4</title>
<path fill="none" stroke="midnightblue" d="M35.7225,-179.687C46.1397,-192.415 61.7475,-209.032 79,-219 85.7163,-222.88 93.2395,-225.986 100.822,-228.466"/>
<polygon fill="midnightblue" stroke="midnightblue" points="38.3162,-177.323 29.3834,-171.626 32.8139,-181.65 38.3162,-177.323"/>
</g>
<!-- Node5 -->
<g id="node5" class="node"><title>Node5</title>
<g id="a_node5"><a xlink:href="classmain_1_1models_1_1PeriodException.html" target="_top" xlink:title="main.models.PeriodException">
<polygon fill="white" stroke="black" points="79,-190.5 79,-209.5 225,-209.5 225,-190.5 79,-190.5"/>
<text text-anchor="middle" x="152" y="-197.5" font-family="Helvetica,sans-Serif" font-size="10.00">main.models.PeriodException</text>
</a>
</g>
</g>
<!-- Node1&#45;&gt;Node5 -->
<g id="edge4" class="edge"><title>Node1&#45;&gt;Node5</title>
<path fill="none" stroke="midnightblue" d="M52.5925,-172.532C61.0944,-175.395 70.3787,-178.416 79,-181 89.8976,-184.266 101.811,-187.532 112.754,-190.412"/>
<polygon fill="midnightblue" stroke="midnightblue" points="53.6526,-169.195 43.0581,-169.279 51.3924,-175.821 53.6526,-169.195"/>
</g>
<!-- Node6 -->
<g id="node6" class="node"><title>Node6</title>
<g id="a_node6"><a xlink:href="classmain_1_1models_1_1Station.html" target="_top" xlink:title="main.models.Station">
<polygon fill="white" stroke="black" points="99,-152.5 99,-171.5 205,-171.5 205,-152.5 99,-152.5"/>
<text text-anchor="middle" x="152" y="-159.5" font-family="Helvetica,sans-Serif" font-size="10.00">main.models.Station</text>
</a>
</g>
</g>
<!-- Node1&#45;&gt;Node6 -->
<g id="edge5" class="edge"><title>Node1&#45;&gt;Node6</title>
<path fill="none" stroke="midnightblue" d="M53.3981,-162C67.0092,-162 83.3833,-162 98.7978,-162"/>
<polygon fill="midnightblue" stroke="midnightblue" points="53.1458,-158.5 43.1457,-162 53.1457,-165.5 53.1458,-158.5"/>
</g>
<!-- Node7 -->
<g id="node7" class="node"><title>Node7</title>
<g id="a_node7"><a xlink:href="classmain_1_1models_1_1Ticket.html" target="_top" xlink:title="main.models.Ticket">
<polygon fill="white" stroke="black" points="101,-114.5 101,-133.5 203,-133.5 203,-114.5 101,-114.5"/>
<text text-anchor="middle" x="152" y="-121.5" font-family="Helvetica,sans-Serif" font-size="10.00">main.models.Ticket</text>
</a>
</g>
</g>
<!-- Node1&#45;&gt;Node7 -->
<g id="edge6" class="edge"><title>Node1&#45;&gt;Node7</title>
<path fill="none" stroke="midnightblue" d="M52.5925,-151.468C61.0944,-148.605 70.3787,-145.584 79,-143 89.8976,-139.734 101.811,-136.468 112.754,-133.588"/>
<polygon fill="midnightblue" stroke="midnightblue" points="51.3924,-148.179 43.0581,-154.721 53.6526,-154.805 51.3924,-148.179"/>
</g>
<!-- Node8 -->
<g id="node8" class="node"><title>Node8</title>
<g id="a_node8"><a xlink:href="classmain_1_1models_1_1Train.html" target="_top" xlink:title="main.models.Train">
<polygon fill="white" stroke="black" points="103.5,-76.5 103.5,-95.5 200.5,-95.5 200.5,-76.5 103.5,-76.5"/>
<text text-anchor="middle" x="152" y="-83.5" font-family="Helvetica,sans-Serif" font-size="10.00">main.models.Train</text>
</a>
</g>
</g>
<!-- Node1&#45;&gt;Node8 -->
<g id="edge7" class="edge"><title>Node1&#45;&gt;Node8</title>
<path fill="none" stroke="midnightblue" d="M35.7225,-144.313C46.1397,-131.585 61.7475,-114.968 79,-105 86.4999,-100.667 95.0059,-97.3004 103.478,-94.6914"/>
<polygon fill="midnightblue" stroke="midnightblue" points="32.8139,-142.35 29.3834,-152.374 38.3162,-146.677 32.8139,-142.35"/>
</g>
<!-- Node9 -->
<g id="node9" class="node"><title>Node9</title>
<g id="a_node9"><a xlink:href="classmain_1_1models_1_1TrainType.html" target="_top" xlink:title="main.models.TrainType">
<polygon fill="white" stroke="black" points="92.5,-38.5 92.5,-57.5 211.5,-57.5 211.5,-38.5 92.5,-38.5"/>
<text text-anchor="middle" x="152" y="-45.5" font-family="Helvetica,sans-Serif" font-size="10.00">main.models.TrainType</text>
</a>
</g>
</g>
<!-- Node1&#45;&gt;Node9 -->
<g id="edge8" class="edge"><title>Node1&#45;&gt;Node9</title>
<path fill="none" stroke="midnightblue" d="M28.8759,-142.758C37.0533,-121.083 53.3249,-86.3621 79,-67 84.1609,-63.108 90.0525,-60.0116 96.1923,-57.5484"/>
<polygon fill="midnightblue" stroke="midnightblue" points="25.5619,-141.632 25.5061,-152.227 32.1566,-143.979 25.5619,-141.632"/>
</g>
<!-- Node10 -->
<g id="node10" class="node"><title>Node10</title>
<g id="a_node10"><a xlink:href="classmain_1_1models_1_1Travel.html" target="_top" xlink:title="main.models.Travel">
<polygon fill="white" stroke="black" points="101,-0.5 101,-19.5 203,-19.5 203,-0.5 101,-0.5"/>
<text text-anchor="middle" x="152" y="-7.5" font-family="Helvetica,sans-Serif" font-size="10.00">main.models.Travel</text>
</a>
</g>
</g>
<!-- Node1&#45;&gt;Node10 -->
<g id="edge9" class="edge"><title>Node1&#45;&gt;Node10</title>
<path fill="none" stroke="midnightblue" d="M25.369,-142.084C30.644,-112.886 44.6738,-58.7167 79,-29 85.2554,-23.5846 92.8831,-19.6894 100.806,-16.8928"/>
<polygon fill="midnightblue" stroke="midnightblue" points="21.8622,-141.842 23.7041,-152.275 28.7706,-142.971 21.8622,-141.842"/>
</g>
</g>
</svg>
