<?xml version="1.0" encoding="UTF-8" standalone="no"?>
<!DOCTYPE svg PUBLIC "-//W3C//DTD SVG 1.1//EN"
 "http://www.w3.org/Graphics/SVG/1.1/DTD/svg11.dtd">
<!-- Generated by graphviz version 2.38.0 (20140413.2041)
 -->
<!-- Title: Graphe hiérarchique des classes Pages: 1 -->
<svg width="233pt" height="294pt"
 viewBox="0.00 0.00 233.00 294.00" xmlns="http://www.w3.org/2000/svg" xmlns:xlink="http://www.w3.org/1999/xlink">
<g id="graph0" class="graph" transform="scale(1 1) rotate(0) translate(4 290)">
<title>Graphe hiérarchique des classes</title>
<polygon fill="white" stroke="none" points="-4,4 -4,-290 229,-290 229,4 -4,4"/>
<!-- Node1 -->
<g id="node1" class="node"><title>Node1</title>
<polygon fill="white" stroke="#bfbfbf" points="0,-133.5 0,-152.5 43,-152.5 43,-133.5 0,-133.5"/>
<text text-anchor="middle" x="21.5" y="-140.5" font-family="Helvetica,sans-Serif" font-size="10.00">Model</text>
</g>
<!-- Node2 -->
<g id="node2" class="node"><title>Node2</title>
<g id="a_node2"><a xlink:href="classmain_1_1models_1_1Halt.html" target="_top" xlink:title="main.models.Halt">
<polygon fill="white" stroke="black" points="105.5,-266.5 105.5,-285.5 198.5,-285.5 198.5,-266.5 105.5,-266.5"/>
<text text-anchor="middle" x="152" y="-273.5" font-family="Helvetica,sans-Serif" font-size="10.00">main.models.Halt</text>
</a>
</g>
</g>
<!-- Node1&#45;&gt;Node2 -->
<g id="edge1" class="edge"><title>Node1&#45;&gt;Node2</title>
<path fill="none" stroke="midnightblue" d="M26.8835,-162.638C33.6277,-188.218 49.0325,-232.551 79,-257 86.5128,-263.129 95.8034,-267.298 105.185,-270.129"/>
<polygon fill="midnightblue" stroke="midnightblue" points="30.2138,-161.521 24.4394,-152.638 23.414,-163.183 30.2138,-161.521"/>
</g>
<!-- Node3 -->
<g id="node3" class="node"><title>Node3</title>
<g id="a_node3"><a xlink:href="classmain_1_1models_1_1Period.html" target="_top" xlink:title="main.models.Period">
<polygon fill="white" stroke="black" points="100.5,-228.5 100.5,-247.5 203.5,-247.5 203.5,-228.5 100.5,-228.5"/>
<text text-anchor="middle" x="152" y="-235.5" font-family="Helvetica,sans-Serif" font-size="10.00">main.models.Period</text>
</a>
</g>
</g>
<!-- Node1&#45;&gt;Node3 -->
<g id="edge2" class="edge"><title>Node1&#45;&gt;Node3</title>
<path fill="none" stroke="midnightblue" d="M31.6931,-161.766C41.1808,-179.179 57.5987,-204.523 79,-219 85.4248,-223.346 92.793,-226.699 100.31,-229.285"/>
<polygon fill="midnightblue" stroke="midnightblue" points="34.635,-159.836 26.9225,-152.572 28.4217,-163.061 34.635,-159.836"/>
</g>
<!-- Node4 -->
<g id="node4" class="node"><title>Node4</title>
<g id="a_node4"><a xlink:href="classmain_1_1models_1_1PeriodException.html" target="_top" xlink:title="main.models.PeriodException">
<polygon fill="white" stroke="black" points="79,-190.5 79,-209.5 225,-209.5 225,-190.5 79,-190.5"/>
<text text-anchor="middle" x="152" y="-197.5" font-family="Helvetica,sans-Serif" font-size="10.00">main.models.PeriodException</text>
</a>
</g>
</g>
<!-- Node1&#45;&gt;Node4 -->
<g id="edge3" class="edge"><title>Node1&#45;&gt;Node4</title>
<path fill="none" stroke="midnightblue" d="M42.372,-158.767C52.7857,-166.39 66.0431,-175.135 79,-181 87.2443,-184.732 96.3633,-187.843 105.262,-190.395"/>
<polygon fill="midnightblue" stroke="midnightblue" points="44.451,-155.951 34.3623,-152.715 40.2312,-161.536 44.451,-155.951"/>
</g>
<!-- Node5 -->
<g id="node5" class="node"><title>Node5</title>
<g id="a_node5"><a xlink:href="classmain_1_1models_1_1Station.html" target="_top" xlink:title="main.models.Station">
<polygon fill="white" stroke="black" points="99,-152.5 99,-171.5 205,-171.5 205,-152.5 99,-152.5"/>
<text text-anchor="middle" x="152" y="-159.5" font-family="Helvetica,sans-Serif" font-size="10.00">main.models.Station</text>
</a>
</g>
</g>
<!-- Node1&#45;&gt;Node5 -->
<g id="edge4" class="edge"><title>Node1&#45;&gt;Node5</title>
<path fill="none" stroke="midnightblue" d="M53.3981,-147.569C67.0092,-149.581 83.3833,-152.002 98.7978,-154.281"/>
<polygon fill="midnightblue" stroke="midnightblue" points="53.5502,-144.053 43.1457,-146.053 52.5262,-150.978 53.5502,-144.053"/>
</g>
<!-- Node6 -->
<g id="node6" class="node"><title>Node6</title>
<g id="a_node6"><a xlink:href="classmain_1_1models_1_1Ticket.html" target="_top" xlink:title="main.models.Ticket">
<polygon fill="white" stroke="black" points="101,-114.5 101,-133.5 203,-133.5 203,-114.5 101,-114.5"/>
<text text-anchor="middle" x="152" y="-121.5" font-family="Helvetica,sans-Serif" font-size="10.00">main.models.Ticket</text>
</a>
</g>
</g>
<!-- Node1&#45;&gt;Node6 -->
<g id="edge5" class="edge"><title>Node1&#45;&gt;Node6</title>
<path fill="none" stroke="midnightblue" d="M53.3409,-138.44C67.5325,-136.341 84.737,-133.798 100.728,-131.433"/>
<polygon fill="midnightblue" stroke="midnightblue" points="52.5262,-135.022 43.1457,-139.947 53.5502,-141.947 52.5262,-135.022"/>
</g>
<!-- Node7 -->
<g id="node7" class="node"><title>Node7</title>
<g id="a_node7"><a xlink:href="classmain_1_1models_1_1Train.html" target="_top" xlink:title="main.models.Train">
<polygon fill="white" stroke="black" points="103.5,-76.5 103.5,-95.5 200.5,-95.5 200.5,-76.5 103.5,-76.5"/>
<text text-anchor="middle" x="152" y="-83.5" font-family="Helvetica,sans-Serif" font-size="10.00">main.models.Train</text>
</a>
</g>
</g>
<!-- Node1&#45;&gt;Node7 -->
<g id="edge6" class="edge"><title>Node1&#45;&gt;Node7</title>
<path fill="none" stroke="midnightblue" d="M42.372,-127.233C52.7857,-119.61 66.0431,-110.865 79,-105 87.2443,-101.268 96.3633,-98.1568 105.262,-95.6054"/>
<polygon fill="midnightblue" stroke="midnightblue" points="40.2312,-124.464 34.3623,-133.285 44.451,-130.049 40.2312,-124.464"/>
</g>
<!-- Node8 -->
<g id="node8" class="node"><title>Node8</title>
<g id="a_node8"><a xlink:href="classmain_1_1models_1_1TrainType.html" target="_top" xlink:title="main.models.TrainType">
<polygon fill="white" stroke="black" points="92.5,-38.5 92.5,-57.5 211.5,-57.5 211.5,-38.5 92.5,-38.5"/>
<text text-anchor="middle" x="152" y="-45.5" font-family="Helvetica,sans-Serif" font-size="10.00">main.models.TrainType</text>
</a>
</g>
</g>
<!-- Node1&#45;&gt;Node8 -->
<g id="edge7" class="edge"><title>Node1&#45;&gt;Node8</title>
<path fill="none" stroke="midnightblue" d="M31.6931,-124.234C41.1808,-106.821 57.5987,-81.4775 79,-67 84.7823,-63.0884 91.3288,-59.9816 98.0598,-57.5142"/>
<polygon fill="midnightblue" stroke="midnightblue" points="28.4217,-122.939 26.9225,-133.428 34.635,-126.164 28.4217,-122.939"/>
</g>
<!-- Node9 -->
<g id="node9" class="node"><title>Node9</title>
<g id="a_node9"><a xlink:href="classmain_1_1models_1_1Travel.html" target="_top" xlink:title="main.models.Travel">
<polygon fill="white" stroke="black" points="101,-0.5 101,-19.5 203,-19.5 203,-0.5 101,-0.5"/>
<text text-anchor="middle" x="152" y="-7.5" font-family="Helvetica,sans-Serif" font-size="10.00">main.models.Travel</text>
</a>
</g>
</g>
<!-- Node1&#45;&gt;Node9 -->
<g id="edge8" class="edge"><title>Node1&#45;&gt;Node9</title>
<path fill="none" stroke="midnightblue" d="M26.8835,-123.362C33.6277,-97.7815 49.0325,-53.4492 79,-29 85.3107,-23.8513 92.8759,-20.0861 100.696,-17.3352"/>
<polygon fill="midnightblue" stroke="midnightblue" points="23.414,-122.817 24.4394,-133.362 30.2138,-124.479 23.414,-122.817"/>
</g>
</g>
</svg>
