<?xml version="1.0" encoding="UTF-8" standalone="no"?>
<!DOCTYPE svg PUBLIC "-//W3C//DTD SVG 1.1//EN"
 "http://www.w3.org/Graphics/SVG/1.1/DTD/svg11.dtd">
<!-- Generated by graphviz version 2.38.0 (20140413.2041)
 -->
<!-- Title: Graphe hiérarchique des classes Pages: 1 -->
<svg width="259pt" height="66pt"
 viewBox="0.00 0.00 259.00 66.00" xmlns="http://www.w3.org/2000/svg" xmlns:xlink="http://www.w3.org/1999/xlink">
<g id="graph0" class="graph" transform="scale(1 1) rotate(0) translate(4 62)">
<title>Graphe hiérarchique des classes</title>
<polygon fill="white" stroke="none" points="-4,4 -4,-62 255,-62 255,4 -4,4"/>
<!-- Node1 -->
<g id="node1" class="node"><title>Node1</title>
<polygon fill="white" stroke="#bfbfbf" points="0,-19.5 0,-38.5 39,-38.5 39,-19.5 0,-19.5"/>
<text text-anchor="middle" x="19.5" y="-26.5" font-family="Helvetica,sans-Serif" font-size="10.00">Form</text>
</g>
<!-- Node2 -->
<g id="node2" class="node"><title>Node2</title>
<g id="a_node2"><a xlink:href="classmain_1_1admin__forms_1_1GTFSImportForm.html" target="_top" xlink:title="main.admin_forms.GTFSImportForm">
<polygon fill="white" stroke="black" points="75,-38.5 75,-57.5 251,-57.5 251,-38.5 75,-38.5"/>
<text text-anchor="middle" x="163" y="-45.5" font-family="Helvetica,sans-Serif" font-size="10.00">main.admin_forms.GTFSImportForm</text>
</a>
</g>
</g>
<!-- Node1&#45;&gt;Node2 -->
<g id="edge1" class="edge"><title>Node1&#45;&gt;Node2</title>
<path fill="none" stroke="midnightblue" d="M49.2923,-32.8661C61.5149,-34.5073 76.3533,-36.4997 91.1949,-38.4926"/>
<polygon fill="midnightblue" stroke="midnightblue" points="49.667,-29.3851 39.2901,-31.5231 48.7353,-36.3228 49.667,-29.3851"/>
</g>
<!-- Node3 -->
<g id="node3" class="node"><title>Node3</title>
<g id="a_node3"><a xlink:href="classmain_1_1forms_1_1SearchForm.html" target="_top" xlink:title="main.forms.SearchForm">
<polygon fill="white" stroke="black" points="102,-0.5 102,-19.5 224,-19.5 224,-0.5 102,-0.5"/>
<text text-anchor="middle" x="163" y="-7.5" font-family="Helvetica,sans-Serif" font-size="10.00">main.forms.SearchForm</text>
</a>
</g>
</g>
<!-- Node1&#45;&gt;Node3 -->
<g id="edge2" class="edge"><title>Node1&#45;&gt;Node3</title>
<path fill="none" stroke="midnightblue" d="M49.5086,-25.1049C64.5943,-23.0792 83.6214,-20.5243 101.715,-18.0948"/>
<polygon fill="midnightblue" stroke="midnightblue" points="48.7353,-21.6772 39.2901,-26.4769 49.667,-28.6149 48.7353,-21.6772"/>
</g>
</g>
</svg>
