<?xml version="1.0" encoding="UTF-8" standalone="no"?>
<!DOCTYPE svg PUBLIC "-//W3C//DTD SVG 1.1//EN"
 "http://www.w3.org/Graphics/SVG/1.1/DTD/svg11.dtd">
<!-- Generated by graphviz version 2.38.0 (20140413.2041)
 -->
<!-- Title: Graphe hiérarchique des classes Pages: 1 -->
<svg width="246pt" height="66pt"
 viewBox="0.00 0.00 246.00 66.00" xmlns="http://www.w3.org/2000/svg" xmlns:xlink="http://www.w3.org/1999/xlink">
<g id="graph0" class="graph" transform="scale(1 1) rotate(0) translate(4 62)">
<title>Graphe hiérarchique des classes</title>
<polygon fill="white" stroke="none" points="-4,4 -4,-62 242,-62 242,4 -4,4"/>
<!-- Node1 -->
<g id="node1" class="node"><title>Node1</title>
<polygon fill="white" stroke="#bfbfbf" points="0,-19.5 0,-38.5 65,-38.5 65,-19.5 0,-19.5"/>
<text text-anchor="middle" x="32.5" y="-26.5" font-family="Helvetica,sans-Serif" font-size="10.00">ModelForm</text>
</g>
<!-- Node2 -->
<g id="node2" class="node"><title>Node2</title>
<g id="a_node2"><a xlink:href="classmain_1_1forms_1_1PassengerForm.html" target="_top" xlink:title="main.forms.PassengerForm">
<polygon fill="white" stroke="black" points="101,-38.5 101,-57.5 238,-57.5 238,-38.5 101,-38.5"/>
<text text-anchor="middle" x="169.5" y="-45.5" font-family="Helvetica,sans-Serif" font-size="10.00">main.forms.PassengerForm</text>
</a>
</g>
</g>
<!-- Node1&#45;&gt;Node2 -->
<g id="edge1" class="edge"><title>Node1&#45;&gt;Node2</title>
<path fill="none" stroke="midnightblue" d="M75.1377,-34.8601C83.3082,-36.01 92.0743,-37.2438 100.844,-38.478"/>
<polygon fill="midnightblue" stroke="midnightblue" points="75.5417,-31.3826 65.1515,-33.4547 74.5661,-38.3143 75.5417,-31.3826"/>
</g>
<!-- Node3 -->
<g id="node3" class="node"><title>Node3</title>
<g id="a_node3"><a xlink:href="classmain_1_1forms_1_1UserForm.html" target="_top" xlink:title="main.forms.UserForm">
<polygon fill="white" stroke="black" points="113.5,-0.5 113.5,-19.5 225.5,-19.5 225.5,-0.5 113.5,-0.5"/>
<text text-anchor="middle" x="169.5" y="-7.5" font-family="Helvetica,sans-Serif" font-size="10.00">main.forms.UserForm</text>
</a>
</g>
</g>
<!-- Node1&#45;&gt;Node3 -->
<g id="edge2" class="edge"><title>Node1&#45;&gt;Node3</title>
<path fill="none" stroke="midnightblue" d="M75.3194,-23.1143C87.3157,-21.4259 100.584,-19.5586 113.256,-17.7751"/>
<polygon fill="midnightblue" stroke="midnightblue" points="74.5661,-19.6857 65.1515,-24.5453 75.5417,-26.6174 74.5661,-19.6857"/>
</g>
</g>
</svg>
